<svg xmlns="http://www.w3.org/2000/svg" width="30.683" height="30.683" viewBox="0 0 30.683 30.683">
  <path id="ic_library_books_24px" d="M5.068,8.137H2V29.615a3.077,3.077,0,0,0,3.068,3.068H26.547V29.615H5.068ZM29.615,2H11.2A3.077,3.077,0,0,0,8.137,5.068v18.41A3.077,3.077,0,0,0,11.2,26.547h18.41a3.077,3.077,0,0,0,3.068-3.068V5.068A3.077,3.077,0,0,0,29.615,2ZM28.081,15.807H12.739V12.739H28.081Zm-6.137,6.137h-9.2V18.876h9.2ZM28.081,9.671H12.739V6.6H28.081Z" transform="translate(-2 -2)" fill="#fff"/>
</svg>
