<svg xmlns="http://www.w3.org/2000/svg" width="24.297" height="29.329" viewBox="0 0 24.297 29.329">
  <g id="Group_9029" data-name="Group 9029" transform="translate(0 0)">
    <path id="Path_149" data-name="Path 149" d="M3.554-30.446a12.147,12.147,0,0,1,17.18,0h0a12.147,12.147,0,0,1,0,17.18l-8.59,8.59-8.59-8.59a12.147,12.147,0,0,1,0-17.18Z" transform="translate(0.004 34.005)" fill="#171a1f" fill-rule="evenodd"/>
    <path id="Path_152" data-name="Path 152" d="M13.337-16.325a4.337,4.337,0,0,0,4.337-4.337A4.337,4.337,0,0,0,13.337-25,4.337,4.337,0,0,0,9-20.663,4.337,4.337,0,0,0,13.337-16.325Z" transform="translate(-1.189 32.811)" fill="#fff" fill-rule="evenodd"/>
  </g>
</svg>
