<svg xmlns="http://www.w3.org/2000/svg" width="14" height="23.333" viewBox="0 0 14 23.333">
  <path id="Icon_awesome-mobile-alt" data-name="Icon awesome-mobile-alt" d="M11.9,0H2.1A2.146,2.146,0,0,0,0,2.188V21.146a2.146,2.146,0,0,0,2.1,2.188h9.8A2.146,2.146,0,0,0,14,21.146V2.188A2.146,2.146,0,0,0,11.9,0ZM7,21.875a1.46,1.46,0,1,1,1.4-1.458A1.429,1.429,0,0,1,7,21.875Zm4.9-4.922a.538.538,0,0,1-.525.547H2.625a.538.538,0,0,1-.525-.547V2.734a.538.538,0,0,1,.525-.547h8.75a.538.538,0,0,1,.525.547Z" fill="#eebf59"/>
</svg>
