<svg xmlns="http://www.w3.org/2000/svg" width="28.439" height="32.277" viewBox="0 0 28.439 32.277">
  <g id="Group_8970" data-name="Group 8970" transform="translate(-300.53 -697.76)">
    <g id="Group_8969" data-name="Group 8969" transform="translate(300.53 705.898)">
      <path id="Path_8925" data-name="Path 8925" d="M64.546,41.477,62.637,20.166a1.325,1.325,0,0,0-1.326-1.2H39.366a1.334,1.334,0,0,0-1.326,1.2l-1.915,21.5A1.258,1.258,0,0,0,37.451,43.1H63.258a1.344,1.344,0,0,0,1.287-1.624ZM38.893,40.461l1.689-18.853H60.1L61.79,40.461h-22.9Z" transform="translate(-36.119 -18.962)" fill="#fff"/>
    </g>
    <path id="Path_8926" data-name="Path 8926" d="M-2924.792-154.426s-1.833-12.814,5.868-12.814,5.959,12.814,5.959,12.814" transform="translate(3233.574 866)" fill="none" stroke="#fff" stroke-width="2"/>
  </g>
</svg>
