<svg xmlns="http://www.w3.org/2000/svg" width="28.442" height="30.606" viewBox="0 0 28.442 30.606">
  <g id="shipping-box-02-svgrepo-com" transform="translate(-2 -1.252)">
    <path id="Path_8919" data-name="Path 8919" d="M14.794,2.658a2.938,2.938,0,0,1,2.854,0L28.687,8.79a1.469,1.469,0,0,1,.756,1.284v12.1a2.938,2.938,0,0,1-1.511,2.568L17.648,30.453a2.938,2.938,0,0,1-2.854,0L4.511,24.74A2.938,2.938,0,0,1,3,22.171v-12.1A1.469,1.469,0,0,1,3.756,8.79Z" transform="translate(0)" fill="none" stroke="#fff" stroke-linecap="round" stroke-linejoin="round" stroke-width="2"/>
    <path id="Path_8920" data-name="Path 8920" d="M7.5,4.5l13.221,7.345v5.142" transform="translate(2.111 1.037)" fill="none" stroke="#fff" stroke-linecap="round" stroke-linejoin="round" stroke-width="2"/>
    <path id="Path_8921" data-name="Path 8921" d="M6,12.328l4.407,2.456" transform="translate(1.407 4.709)" fill="none" stroke="#fff" stroke-linecap="round" stroke-linejoin="round" stroke-width="2"/>
    <path id="Path_8922" data-name="Path 8922" d="M3,7l13.221,7.345m0,0L29.442,7M16.221,14.345v14.69" transform="translate(0 2.21)" fill="none" stroke="#fff" stroke-linejoin="round" stroke-width="2"/>
  </g>
</svg>
